# xmcd
#
# Track frame offsets: 
#        150
#        18171
#        33805
#        45359
#        60510
#        73487
#        87662
#        103597
#        118482
#        136031
#        150278
#        162938
#
# Disc length: 2299 seconds
#
# Revision: 0
# Processed by: cddbd v1.5.2PL0 Copyright (c) Steve Scherf et al.
# Submitted via: ExactAudioCopyFreeDBPlugin 1.0
#
DISCID=9508f90c
DTITLE=Umse - Hawaiianischer Schnee
DYEAR=2015
DGENRE=Hip-Hop
TTITLE0=Hawaiianischer Schnee
TTITLE1=Rush Hour
TTITLE2=Stillstand ist der Tod (feat. Rheza)
TTITLE3=Menschen
TTITLE4=Die Bombe tickt
TTITLE5=Ich weiﬂ (feat. Dike)
TTITLE6=Glaub an was
TTITLE7=Wer Du bist (feat. Jokaz)
TTITLE8=Wo man auch auftritt
TTITLE9=Versuch's mal mit Musik
TTITLE10=Iller denn je (feat. Aphroe)
TTITLE11=Dankbar
EXTD=
EXTT0=
EXTT1=
EXTT2=
EXTT3=
EXTT4=
EXTT5=
EXTT6=
EXTT7=
EXTT8=
EXTT9=
EXTT10=
EXTT11=
PLAYORDER=
